<svg
xmlns="http://www.w3.org/2000/svg"
xmlns:xlink="http://www.w3.org/1999/xlink"
width="25"
height="46">
<defs>
<symbol id="checkbox-off" >
  <path fill-rule="evenodd" clip-rule="evenodd" d="M3 0H20C21.65 0 23 1.35 23 3V20C23 21.65 21.65 23 20 23H3C1.35 23 0 21.65 0 20V3C0 1.35 1.35 0 3 0ZM21 3C21 2.458 20.542 2 20 2H3C2.458 2 2 2.458 2 3V20C2 20.542 2.458 21 3 21H20C20.542 21 21 20.542 21 20V3Z"/>
</symbol>
<symbol id="checkbox-on" >
<path d="M6.95925 8.48591L4.25684 11.3149L11.6916 19.0979L25.0002 5.16591L22.2988 2.33691L11.6916 13.4389L6.95925 8.48591Z"/>
<path d="M21 20C21 20.542 20.542 21 20 21H3C2.458 21 2 20.542 2 20V3C2 2.458 2.458 2 3 2H19.908L21.493 0.415C21.041 0.146542 20.5257 0.00329969 20 0H3C1.35 0 0 1.35 0 3V20C0 21.65 1.35 23 3 23H20C21.65 23 23 21.65 23 20V10.171L21 12.171V20Z"/>
</symbol>
</defs>
 <use xlink:href="#checkbox-off" x="0" y="0" fill="4D4D4D"/>
 <use xlink:href="#checkbox-on" x="0" y="23" fill="4D4D4D"/>
</svg>
